<svg width="140" height="140" viewBox="0 0 140 140" fill="none" xmlns="http://www.w3.org/2000/svg">
<g opacity="0.2">
<path d="M91.831 97.3658C91.506 97.2033 91.0185 97.0408 90.6935 96.8783H90.531C90.206 96.7158 89.7185 96.5533 89.3935 96.5533C89.3935 96.5533 89.231 96.5533 89.0685 96.5533C88.0935 96.2283 87.1185 96.0658 85.981 95.9033H85.8185C85.4935 95.9033 85.331 96.0658 85.1685 96.2283C84.1935 97.2033 82.8935 97.8533 81.2685 97.8533C79.6435 97.8533 78.3435 97.2033 77.3685 96.2283C77.206 96.0658 76.881 95.9033 76.7185 95.9033H76.556C75.4185 96.0658 74.4435 96.3908 73.4685 96.7158C73.1435 96.8783 72.1685 97.2033 71.031 97.6908C70.2185 98.1783 69.5685 98.8283 69.081 99.4783C68.9185 99.4783 68.5935 99.3158 68.431 99.3158C68.431 99.3158 68.2685 99.3158 68.106 99.1533C67.131 98.8283 66.156 98.6658 65.0185 98.3408H64.856C64.531 98.3408 64.3685 98.5033 64.206 98.6658C63.231 99.6408 61.931 100.291 60.306 100.291C58.681 100.291 57.381 99.6408 56.406 98.6658C56.2435 98.5033 55.9185 98.3408 55.756 98.3408H55.5935C54.456 98.5033 53.481 98.8283 52.506 99.1533C52.3435 99.1533 52.0185 99.3158 51.6935 99.4783C51.206 98.8283 50.7185 98.1783 49.906 97.6908C49.581 97.5283 49.0935 97.3658 48.7685 97.2033H48.606C48.281 97.0408 47.7935 96.8783 47.4685 96.8783C47.4685 96.8783 47.306 96.8783 47.1435 96.8783C46.1685 96.5533 45.1935 96.3908 44.056 96.2283H43.8935C43.5685 96.2283 43.406 96.3908 43.2435 96.5533C42.2685 97.5283 40.9685 98.1783 39.3435 98.1783C37.7185 98.1783 36.4185 97.5283 35.4435 96.5533C35.281 96.3908 34.956 96.2283 34.7935 96.2283H34.631C33.4935 96.3908 32.5185 96.7158 31.5435 97.0408C31.2185 97.2033 30.2435 97.5283 29.106 98.0158C27.481 98.8283 26.3435 100.453 26.181 102.241C26.181 102.728 26.181 103.053 26.181 103.541V105.816C26.181 107.278 26.9935 108.741 28.2935 109.391C34.4685 112.478 41.456 112.966 47.956 110.528C48.281 111.178 48.7685 111.666 49.4185 111.991C56.406 115.566 64.531 115.566 71.5185 111.991C72.1685 111.666 72.656 111.178 72.981 110.528C79.3185 112.966 86.4685 112.478 92.6435 109.391C93.9435 108.741 94.756 107.278 94.756 105.816V102.403C94.431 99.8033 93.456 98.3408 91.831 97.3658Z" fill="url(#paint0_linear_7223_24644)"/>
<path d="M59.9786 94.7651C63.5536 94.7651 66.3161 92.0026 66.3161 88.4276C66.3161 84.8526 63.5536 82.0901 59.9786 82.0901C56.4036 82.0901 53.6411 84.8526 53.6411 88.4276C53.6411 92.0026 56.5661 94.7651 59.9786 94.7651Z" stroke="#08526D" stroke-width="3.5" stroke-miterlimit="10" stroke-linecap="round" stroke-linejoin="round"/>
<path d="M73.3039 104.027V107.439C73.3039 108.252 73.1414 109.064 72.6539 109.552C72.3289 110.202 71.8414 110.689 71.1914 111.014C64.2039 114.589 55.9164 114.589 49.0914 111.014C48.4414 110.689 47.9539 110.202 47.6289 109.552C47.3039 108.902 46.9789 108.089 46.9789 107.439V105.164C46.9789 104.839 46.9789 104.352 46.9789 103.864C46.9789 102.077 48.1164 100.452 49.9039 99.6392C50.5539 99.3142 51.2039 98.9892 51.5289 98.8267C51.8539 98.6642 52.1789 98.6642 52.3414 98.5017C53.3164 98.1767 54.2914 98.0142 55.4289 97.6892H55.5914C55.9164 97.6892 56.0789 97.6892 56.2414 98.0142C57.2164 98.9892 58.5164 99.6392 60.1414 99.6392C61.7664 99.6392 63.0664 98.9892 64.0414 98.0142C64.2039 97.8517 64.5289 97.6892 64.6914 97.6892H64.8539C65.9914 97.8517 66.9664 98.1767 67.9414 98.5017C67.9414 98.5017 68.1039 98.5017 68.2664 98.6642C68.4289 98.6642 68.5914 98.8267 68.9164 98.8267C69.0789 98.8267 69.2414 98.9892 69.5664 98.9892H69.7289C70.2164 99.1517 70.5414 99.3142 70.8664 99.4767C72.3289 100.777 73.3039 102.239 73.3039 104.027Z" stroke="#08526D" stroke-width="3.5" stroke-miterlimit="10" stroke-linecap="round" stroke-linejoin="round"/>
<path d="M38.8548 92.3273C42.4298 92.3273 45.1923 89.5648 45.1923 85.9898C45.1923 82.4148 42.4298 79.6523 38.8548 79.6523C35.2798 79.6523 32.5173 82.4148 32.5173 85.9898C32.5173 89.5648 35.4423 92.3273 38.8548 92.3273Z" stroke="#08526D" stroke-width="3.5" stroke-miterlimit="10" stroke-linecap="round" stroke-linejoin="round"/>
<path d="M51.3673 98.9891C50.8798 99.1516 50.3923 99.3141 49.7423 99.8016C48.1173 100.614 46.9798 102.239 46.8173 104.027C46.8173 104.514 46.8173 104.839 46.8173 105.327V107.602C46.8173 108.414 46.9798 109.227 47.4673 109.714C41.1298 112.152 33.9798 111.664 27.8048 108.577C26.5048 107.927 25.6923 106.464 25.6923 105.002V102.727C25.6923 102.239 25.6923 101.914 25.6923 101.427C25.6923 99.6391 26.8298 98.0141 28.6173 97.2016C29.7548 96.5516 30.7298 96.2266 31.0548 96.2266C32.0298 95.9016 33.0048 95.7391 34.1423 95.4141H34.3048C34.6298 95.4141 34.7923 95.5766 34.9548 95.7391C35.9298 96.7141 37.2298 97.3641 38.8548 97.3641C40.4798 97.3641 41.7798 96.7141 42.7548 95.7391C42.9173 95.5766 43.2423 95.4141 43.4048 95.4141H43.5673C44.7048 95.5766 45.6798 95.9016 46.6548 96.0641C46.6548 96.0641 46.8173 96.0641 46.9798 96.0641C47.3048 96.2266 47.7923 96.3891 48.1173 96.3891H48.2798C48.7673 96.5516 49.0923 96.7141 49.4173 96.8766C50.3923 97.6891 50.8798 98.3391 51.3673 98.9891Z" stroke="#08526D" stroke-width="3.5" stroke-miterlimit="10" stroke-linecap="round" stroke-linejoin="round"/>
<path d="M81.1051 92.3273C84.6801 92.3273 87.4426 89.5648 87.4426 85.9898C87.4426 82.4148 84.6801 79.6523 81.1051 79.6523C77.5301 79.6523 74.7676 82.4148 74.7676 85.9898C74.7676 89.5648 77.6926 92.3273 81.1051 92.3273Z" stroke="#08526D" stroke-width="3.5" stroke-miterlimit="10" stroke-linecap="round" stroke-linejoin="round"/>
<path d="M94.4295 101.59V105.002C94.4295 106.465 93.617 107.927 92.317 108.577C86.142 111.665 78.992 112.152 72.6545 109.715C72.9795 109.065 73.3045 108.252 73.3045 107.602V104.027C73.3045 102.24 72.3295 100.777 70.867 99.8024C70.542 99.6399 70.0545 99.3149 69.7295 99.3149H69.567C69.4045 99.3149 69.242 99.1524 68.917 99.1524C69.4045 98.5024 70.0545 97.8524 70.867 97.3649C72.0045 96.7149 72.9795 96.3899 73.3045 96.3899C74.2795 96.0649 75.2545 95.9024 76.392 95.5774H76.5545C76.8795 95.5774 77.042 95.7399 77.2045 95.9024C78.1795 96.8774 79.4795 97.5274 81.1045 97.5274C82.7295 97.5274 84.0295 96.8774 85.0045 95.9024C85.167 95.7399 85.492 95.5774 85.6545 95.5774H85.817C86.9545 95.7399 87.9295 96.0649 88.9045 96.2274C88.9045 96.2274 89.067 96.2274 89.2295 96.2274C89.5545 96.3899 90.042 96.5524 90.367 96.5524H90.5295C91.017 96.7149 91.342 96.8774 91.667 97.0399C93.4545 98.3399 94.4295 99.8024 94.4295 101.59Z" stroke="#08526D" stroke-width="3.5" stroke-miterlimit="10" stroke-linecap="round" stroke-linejoin="round"/>
<path d="M66.3704 27.0779H109.92C111.391 27.0779 112.558 28.2446 112.558 29.7156V53.115C112.558 54.586 111.391 55.7527 109.92 55.7527H66.3704C64.8994 55.7527 63.7327 54.586 63.7327 53.115V29.7156C63.7327 28.3366 64.7578 27.2252 66.0979 27.0916L66.3704 27.0779Z" fill="#ADE3F6" stroke="#08526D" stroke-width="3.5"/>
<path d="M83.3801 76.4033H83.2176C82.5676 76.2408 82.0801 75.5908 82.2426 74.9408C82.4051 73.6408 82.5676 72.3408 82.5676 70.8783C82.5676 65.1908 80.4551 59.8283 76.5551 55.6033C72.3301 51.0533 66.3176 48.2908 59.9801 48.2908C53.6426 48.2908 47.9551 50.7283 43.5676 55.4408C39.6676 59.6658 37.3926 65.1908 37.3926 70.8783C37.3926 72.1783 37.5551 73.6408 37.7176 74.9408C37.8801 75.5908 37.3926 76.2408 36.7426 76.4033C36.0926 76.5658 35.4426 76.0783 35.2801 75.4283C34.9551 73.9658 34.9551 72.5033 34.9551 70.8783C34.9551 64.3783 37.3926 58.3658 41.7801 53.6533C46.4926 48.6158 52.9926 45.8533 59.9801 45.8533C66.9676 45.8533 73.6301 48.7783 78.5051 53.9783C82.7301 58.6908 85.1676 64.7033 85.1676 70.8783C85.1676 72.3408 85.0051 73.9658 84.8426 75.4283C84.5176 76.0783 84.0301 76.4033 83.3801 76.4033Z" fill="#08526D"/>
<path d="M60.305 61.2903C60.1425 61.2903 60.1425 61.2903 59.98 61.2903C56.5675 61.2903 53.155 60.8028 50.0675 59.6653C47.1425 58.6903 44.38 57.3903 41.9425 55.6028C41.2925 55.1153 41.2925 54.4653 41.6175 53.8153C42.105 53.1653 42.755 53.1653 43.405 53.4903C45.68 55.1153 48.1175 56.2528 50.88 57.2278C53.805 58.2028 56.8925 58.6903 60.1425 58.6903C60.305 58.6903 60.305 58.6903 60.4675 58.6903C63.555 58.6903 66.6425 58.2028 69.405 57.3903C72.1675 56.5778 74.605 55.2778 76.88 53.8153C77.53 53.4903 78.3425 53.4903 78.6675 54.1403C78.9925 54.7903 78.9925 55.6028 78.3425 55.9278C75.905 57.7153 73.1425 59.0153 70.055 59.9903C66.9675 60.8028 63.555 61.2903 60.305 61.2903Z" fill="#08526D"/>
<path d="M70.3802 81.2783C70.2177 81.2783 70.2177 81.2783 70.0552 81.2783C69.4052 81.1158 68.9177 80.4658 69.0802 79.8158C69.5677 77.0533 69.8927 73.9658 69.8927 71.0408C69.8927 66.8158 69.4052 62.7533 68.2677 59.1783C66.4802 52.6783 63.2302 48.6158 59.8177 48.6158C56.5677 48.6158 53.3177 52.6783 51.5302 59.0158L51.3677 59.3408C50.3927 62.9158 49.9052 66.9783 49.9052 71.0408C49.9052 74.1283 50.2302 77.0533 50.7177 79.8158C50.8802 80.4658 50.3927 81.1158 49.7427 81.2783C49.0927 81.4408 48.4427 80.9533 48.2802 80.3033C47.6302 77.3783 47.4677 74.1283 47.4677 71.0408C47.4677 66.4908 48.1177 62.1033 49.0927 58.2033L49.4177 57.2283C51.6927 50.0783 55.5927 45.8533 59.9802 45.8533C64.5302 45.8533 68.5927 50.5658 70.8677 58.3658C72.0051 62.1033 72.4927 66.4908 72.4927 71.0408C72.4927 74.2908 72.1677 77.3783 71.6802 80.3033C71.5177 80.7908 71.0302 81.2783 70.3802 81.2783Z" fill="#08526D"/>
<path d="M83.8676 72.1779H36.2551C35.6051 72.1779 34.9551 71.5279 34.9551 70.8779C34.9551 70.2279 35.6051 69.5779 36.2551 69.5779H83.8676C84.5176 69.5779 85.1676 70.2279 85.1676 70.8779C85.1676 71.6904 84.5176 72.1779 83.8676 72.1779Z" fill="#08526D"/>
<path d="M59.9797 77.5408C59.3297 77.5408 58.6797 76.8908 58.6797 76.2408V47.1533C58.6797 46.5033 59.3297 45.8533 59.9797 45.8533C60.6297 45.8533 61.2797 46.5033 61.2797 47.1533V76.4033C61.2797 77.0533 60.7922 77.5408 59.9797 77.5408Z" fill="#08526D"/>
</g>
<defs>
<linearGradient id="paint0_linear_7223_24644" x1="60.0299" y1="113.778" x2="60.0299" y2="95.4686" gradientUnits="userSpaceOnUse">
<stop stop-color="#ADE3F6"/>
<stop offset="0.5947" stop-color="#ADE3F6" stop-opacity="0"/>
</linearGradient>
</defs>
</svg>
